<svg version="1.1" xmlns="http://www.w3.org/2000/svg" xmlns:xlink="http://www.w3.org/1999/xlink" width="57.61883" height="70.47006" viewBox="0,0,57.61883,70.47006"><g transform="translate(-210.38166,-150.12977)"><g data-paper-data="{&quot;isPaintingLayer&quot;:true}" fill-rule="nonzero" stroke-linejoin="miter" stroke-miterlimit="10" stroke-dasharray="" stroke-dashoffset="0" style="mix-blend-mode: normal"><path d="M210.38166,220.59983l6.79892,-34.91524l-6.79892,-35.55482c0,0 11.70172,6.51919 19.1347,10.86146c11.1347,6.5048 12.17127,41.31994 1.07119,47.8045c-7.87857,4.60259 -20.20589,11.8041 -20.20589,11.8041z" fill="#868686" stroke="none" stroke-width="0" stroke-linecap="butt"/><path d="M227.65884,203.07023l-10.51227,0c0,0 2.74233,-12.92532 2.74233,-19.32649c0,-6.17911 -2.74233,-18.43792 -2.74233,-18.43792l11.27403,0c0,0 3.47169,12.59005 3.00838,18.97033c-0.45043,6.20284 -3.77013,18.79408 -3.77013,18.79408z" fill="#66cfff" stroke="none" stroke-width="0" stroke-linecap="butt"/><path d="M234.2632,161.85408c9.29432,6.4432 32.53431,22.55407 32.53431,22.55407l-33.47969,0c0,0 -6.02381,-27.38537 0.94537,-22.55406z" fill="#868686" stroke="none" stroke-width="0" stroke-linecap="butt"/><path d="M234.5208,184.78443l33.47969,0c0,0 -23.23998,16.11087 -32.5343,22.55407c-1.01052,0.70053 -1.74786,0.72372 -2.27002,0.25127c-3.07892,-2.78588 1.32464,-22.80534 1.32464,-22.80534z" data-paper-data="{&quot;index&quot;:null}" fill="#868686" stroke="none" stroke-width="0" stroke-linecap="butt"/><path d="M266.75159,184.65379l-33.36503,-0.22215" fill="none" stroke="#000000" stroke-width="0.5" stroke-linecap="round"/></g></g></svg>