<svg version="1.1" xmlns="http://www.w3.org/2000/svg" xmlns:xlink="http://www.w3.org/1999/xlink" width="58.94114" height="70.47006" viewBox="0,0,58.94114,70.47006"><g transform="translate(-210.38165,-150.12976)"><g data-paper-data="{&quot;isPaintingLayer&quot;:true}" fill-rule="nonzero" stroke="none" stroke-width="0" stroke-linecap="butt" stroke-linejoin="miter" stroke-miterlimit="10" stroke-dasharray="" stroke-dashoffset="0" style="mix-blend-mode: normal"><path d="M236.22666,193.97008v-17.77402h8.46669v17.77402z" fill="#474747"/><path d="M210.38166,220.59983l6.79892,-34.91524l-6.79892,-35.55482c0,0 11.70172,6.51919 19.1347,10.86146c11.1347,6.5048 12.17127,41.31994 1.07119,47.8045c-7.87857,4.60259 -20.20589,11.8041 -20.20589,11.8041z" fill="#868686"/><path d="M227.65884,203.07023h-10.51227c0,0 2.74233,-12.92532 2.74233,-19.32649c0,-6.17911 -2.74233,-18.43792 -2.74233,-18.43792h11.27403c0,0 3.47169,12.59005 3.00838,18.97033c-0.45043,6.20284 -3.77013,18.79408 -3.77013,18.79408z" fill="#66cfff"/><path d="M230.36943,165.93574c11.12811,-2.01605 38.95337,-7.0571 38.95337,-7.0571l-23.67372,23.67372c0,0 -23.62386,-15.1049 -15.27965,-16.61661z" fill="#868686"/><path d="M245.27687,188.0185l23.67371,23.67372c0,0 -27.82525,-5.04105 -38.95336,-7.05709c-1.20989,-0.2192 -1.74767,-0.72418 -1.78282,-1.42747c-0.20721,-4.14704 17.06248,-15.18915 17.06248,-15.18915z" data-paper-data="{&quot;index&quot;:null}" fill="#868686"/></g></g></svg>