<svg version="1.1" xmlns="http://www.w3.org/2000/svg" xmlns:xlink="http://www.w3.org/1999/xlink" width="712.74784" height="458.84698" viewBox="0,0,712.74784,458.84698"><g transform="translate(196.85883,28.26508)"><g data-paper-data="{&quot;isPaintingLayer&quot;:true}" fill-rule="nonzero" stroke-linejoin="miter" stroke-miterlimit="10" stroke-dasharray="" stroke-dashoffset="0" style="mix-blend-mode: normal"><path d="M-44.18641,361.71337v-389.97844h554.26724v389.97845z" fill="#420000" stroke="none" stroke-width="0" stroke-linecap="butt"/><path d="M-54.97305,430.58191v-194.15948h570.86207v194.15948z" fill="#4e0073" stroke="none" stroke-width="0" stroke-linecap="butt"/><path d="M-196.85882,339.31036v-1.65948h0.82974v1.65948z" fill="#18dd1d" stroke="none" stroke-width="0" stroke-linecap="butt"/><path d="M28.44451,305.71031l19,-34" fill="none" stroke="#00a600" stroke-width="2" stroke-linecap="round"/><path d="M74.44451,271.71031l42,43" fill="none" stroke="#00a600" stroke-width="2" stroke-linecap="round"/><path d="M156.44451,312.71031l80,-33" fill="none" stroke="#00a600" stroke-width="2" stroke-linecap="round"/><path d="M268.44451,276.71031l84,50" fill="none" stroke="#00a600" stroke-width="2" stroke-linecap="round"/><path d="M405.44451,306.71031l52,-38" fill="none" stroke="#00a600" stroke-width="2" stroke-linecap="round"/><path d="M378.44451,254.71031l-26,55" fill="none" stroke="#00a600" stroke-width="2" stroke-linecap="round"/><path d="M133.44451,260.71031l61,-12" fill="none" stroke="#00a600" stroke-width="2" stroke-linecap="round"/><path d="M15.44451,246.71031l-13,18" fill="none" stroke="#00a600" stroke-width="2" stroke-linecap="round"/><path d="M14.44451,247.71031v-27h13v27z" fill="#4f4000" stroke="none" stroke-width="0" stroke-linecap="butt"/><path d="M98.44451,247.71031v-27h13v27z" fill="#4f4000" stroke="none" stroke-width="0" stroke-linecap="butt"/><path d="M8.44451,225.71031v-16h114v16z" fill="#18dd1d" stroke="none" stroke-width="0" stroke-linecap="butt"/><path d="M358.44451,247.71031v-27h13v27z" fill="#4f4000" stroke="none" stroke-width="0" stroke-linecap="butt"/><path d="M442.44451,247.71031v-27h13v27z" fill="#4f4000" stroke="none" stroke-width="0" stroke-linecap="butt"/><path d="M352.44451,225.71031v-16h114v16z" fill="#18dd1d" stroke="none" stroke-width="0" stroke-linecap="butt"/><g stroke="none" stroke-linecap="butt"><path d="M30.31951,216.46031v-5.75h21.75v5.75z" fill="#ffffff" stroke-width="0"/><path d="M38.81951,214.46031c0,-0.73209 0.66995,-0.92822 1.02892,-0.98077c0.0112,-0.00752 0.02248,-0.01509 0.03381,-0.02267c-0.0223,0.00114 -0.0433,0.00227 -0.06273,0.00344c0,0 -1.25,0 -1.25,-1c0,-1 1.25,-1 1.25,-1c3.85456,0.12023 4.06052,2.08255 1.25,3.8l-1,0.2c0,0 -1.25,0 -1.25,-1z" fill="#ff0000" stroke-width="0.5"/></g><g stroke="none" stroke-width="0" stroke-linecap="butt"><g fill="#ffffff"><path d="M359.81951,218.46031v-5.75h21.75v5.75z"/></g><path d="M366.9679,215.58531l3.47661,-1.55994l3.47661,1.55994l-3.47661,1.55994z" fill="#ff0000"/></g><g stroke="none" stroke-width="0" stroke-linecap="butt"><g fill="#ffffff"><g><path d="M70.06951,222.96031v-5.75h21.75v5.75z"/></g></g><g fill="#000000"><path d="M77.48618,219.91865c0,0 0.88929,-0.63188 2.07319,-0.95065c0.84813,-0.22837 2.01894,-0.17435 2.33022,-0.17435c0.7458,0 -1.11553,0.59573 -1.11553,1.125c0,0.52928 1.50905,1.45833 0.76326,1.45833c-0.37299,0 -1.62105,-0.03144 -2.5408,-0.39611c-0.91927,-0.36449 -1.51033,-1.06222 -1.51033,-1.06222z"/><path d="M78.42557,220.46031v-0.91666h4.22727v0.91666z"/></g></g><g stroke="none" stroke-width="0" stroke-linecap="butt"><path d="M427.56951,216.96031v-5.75h21.75v5.75z" fill="#ffffff"/><path d="M436.05285,213.00198c0,-0.52928 0.68649,-0.95834 1.53333,-0.95834c0.84684,0 1.53334,0.42906 1.53334,0.95834c0,0.52928 -0.6865,0.95833 -1.53334,0.95833c-0.84684,0 -1.53333,-0.42905 -1.53333,-0.95833z" fill="#000000"/><path d="M433.65284,214.00198c0,-0.52928 0.68649,-0.95834 1.53333,-0.95834c0.84684,0 1.53334,0.42906 1.53334,0.95834c0,0.52928 -0.6865,0.95833 -1.53334,0.95833c-0.84684,0 -1.53333,-0.42905 -1.53333,-0.95833z" fill="#000000"/><path d="M436.05285,215.16864c0,-0.52928 0.68649,-0.95834 1.53333,-0.95834c0.84684,0 1.53334,0.42906 1.53334,0.95834c0,0.52928 -0.6865,0.95833 -1.53334,0.95833c-0.84684,0 -1.53333,-0.42905 -1.53333,-0.95833z" fill="#000000"/><path d="M436.18617,214.46031v-0.91667h4.8v0.91667z" fill="#000000"/></g></g></g></svg>