<svg version="1.1" xmlns="http://www.w3.org/2000/svg" xmlns:xlink="http://www.w3.org/1999/xlink" width="652.74784" height="458.84698" viewBox="0,0,652.74784,458.84698"><g transform="translate(116.37393,30.42349)"><g data-paper-data="{&quot;isPaintingLayer&quot;:true}" fill-rule="nonzero" stroke="none" stroke-linecap="butt" stroke-linejoin="miter" stroke-miterlimit="10" stroke-dasharray="" stroke-dashoffset="0" style="mix-blend-mode: normal"><path d="M-23.70152,359.55495v-389.97844h554.26724v389.97845z" fill="#060040" stroke-width="0"/><path d="M53.2414,203.11438l-10.94285,-50.54295c0,0 -4.91079,-17.6449 17.91479,-22.36946c23.92222,-4.95155 25.01955,13.07392 25.01955,13.07392l10.94285,50.54295z" fill="#636363" stroke-width="0"/><text transform="translate(49.11076,145.54451) rotate(-12.21633) scale(0.1986,0.1986)" font-size="40" xml:space="preserve" fill="#000000" fill-rule="nonzero" stroke="none" stroke-width="1" stroke-linecap="butt" stroke-linejoin="miter" stroke-miterlimit="10" stroke-dasharray="" stroke-dashoffset="0" font-family="Marker" font-weight="normal" text-anchor="start" style="mix-blend-mode: normal"><tspan x="0" dy="0">  Rip </tspan><tspan x="0" dy="46.150000000000006px">Gas Car</tspan></text><text transform="translate(47.4225,166.43466) rotate(-12.21633) scale(0.12863,0.12863)" font-size="40" xml:space="preserve" fill="#000000" fill-rule="nonzero" stroke="none" stroke-width="1" stroke-linecap="butt" stroke-linejoin="miter" stroke-miterlimit="10" stroke-dasharray="" stroke-dashoffset="0" font-family="Marker" font-weight="normal" text-anchor="start" style="mix-blend-mode: normal"><tspan x="0" dy="0">"unappreciated </tspan><tspan x="0" dy="46.150000000000006px">by all."</tspan></text><text transform="translate(56.5712,179.7882) rotate(-12.21633) scale(0.13309,0.13309)" font-size="40" xml:space="preserve" fill="#000000" fill-rule="nonzero" stroke="none" stroke-width="1" stroke-linecap="butt" stroke-linejoin="miter" stroke-miterlimit="10" stroke-dasharray="" stroke-dashoffset="0" font-family="Marker" font-weight="normal" text-anchor="start" style="mix-blend-mode: normal"><tspan x="0" dy="0">2014-2019</tspan></text><path d="M397.73591,224.12525l13.29353,-65.48739c0,0 3.35044,-23.42832 32.81221,-17.16773c30.87725,6.56138 22.81686,28.46009 22.81686,28.46009l-13.29353,65.48739z" fill="#636363" stroke-width="0"/><text transform="translate(413.54577,159.57531) rotate(11.47477) scale(0.25662,0.25662)" font-size="40" xml:space="preserve" fill="#000000" fill-rule="nonzero" stroke="none" stroke-width="1" stroke-linecap="butt" stroke-linejoin="miter" stroke-miterlimit="10" stroke-dasharray="" stroke-dashoffset="0" font-family="Marker" font-weight="normal" text-anchor="start" style="mix-blend-mode: normal"><tspan x="0" dy="0">Rip Pikmin</tspan></text><text transform="translate(408.25143,174.82155) rotate(11.47477) scale(0.17338,0.17338)" font-size="40" xml:space="preserve" fill="#000000" fill-rule="nonzero" stroke="none" stroke-width="1" stroke-linecap="butt" stroke-linejoin="miter" stroke-miterlimit="10" stroke-dasharray="" stroke-dashoffset="0" font-family="Marker" font-weight="normal" text-anchor="start" style="mix-blend-mode: normal"><tspan x="0" dy="0">"unlike anything</tspan><tspan x="0" dy="46.150000000000006px">I've ever played"</tspan></text><text transform="translate(419.21323,201.90157) rotate(11.47477) scale(0.17198,0.17198)" font-size="40" xml:space="preserve" fill="#000000" fill-rule="nonzero" stroke="none" stroke-width="1" stroke-linecap="butt" stroke-linejoin="miter" stroke-miterlimit="10" stroke-dasharray="" stroke-dashoffset="0" font-family="Marker" font-weight="normal" text-anchor="start" style="mix-blend-mode: normal"><tspan x="0" dy="0">- The Josh</tspan></text><path d="M152.45694,190.58514v-63.14389c0,0 -1.30145,-22.32574 27.15866,-22.06641c29.82746,0.27179 26.47969,22.06641 26.47969,22.06641v63.14389z" fill="#636363" stroke-width="0"/><text transform="translate(158.43945,125.64097) scale(0.24249,0.24249)" font-size="40" xml:space="preserve" fill="#000000" fill-rule="nonzero" stroke="none" stroke-width="1" stroke-linecap="butt" stroke-linejoin="miter" stroke-miterlimit="10" stroke-dasharray="" stroke-dashoffset="0" font-family="Marker" font-weight="normal" text-anchor="start" style="mix-blend-mode: normal"><tspan x="0" dy="0">Rip Terry</tspan></text><text transform="translate(153.93035,145.92441) scale(0.198,0.198)" font-size="40" xml:space="preserve" fill="#000000" fill-rule="nonzero" stroke="none" stroke-width="1" stroke-linecap="butt" stroke-linejoin="miter" stroke-miterlimit="10" stroke-dasharray="" stroke-dashoffset="0" font-family="Marker" font-weight="normal" text-anchor="start" style="mix-blend-mode: normal"><tspan x="0" dy="0">Nobody Likes</tspan><tspan x="0" dy="46.150000000000006px">     him</tspan></text><text transform="translate(161.99284,165.49312) scale(0.16251,0.16251)" font-size="40" xml:space="preserve" fill="#000000" fill-rule="nonzero" stroke="none" stroke-width="1" stroke-linecap="butt" stroke-linejoin="miter" stroke-miterlimit="10" stroke-dasharray="" stroke-dashoffset="0" font-family="Marker" font-weight="normal" text-anchor="start" style="mix-blend-mode: normal"><tspan x="0" dy="0">2018-2018</tspan></text><path d="M278.52296,205.37599l7.84921,-62.65414c0,0 1.48388,-22.31436 29.69102,-18.51926c29.56233,3.97744 23.53131,25.18686 23.53131,25.18686l-7.84921,62.65414z" fill="#636363" stroke-width="0"/><text transform="translate(295.9936,143.21766) rotate(7.14072) scale(0.24249,0.24249)" font-size="40" xml:space="preserve" fill="#000000" fill-rule="nonzero" stroke="none" stroke-width="1" stroke-linecap="butt" stroke-linejoin="miter" stroke-miterlimit="10" stroke-dasharray="" stroke-dashoffset="0" font-family="Marker" font-weight="normal" text-anchor="start" style="mix-blend-mode: normal"><tspan x="0" dy="0">Rip Joe</tspan></text><text transform="translate(285.53657,161.24481) rotate(7.14072) scale(0.198,0.198)" font-size="40" xml:space="preserve" fill="#000000" fill-rule="nonzero" stroke="none" stroke-width="1" stroke-linecap="butt" stroke-linejoin="miter" stroke-miterlimit="10" stroke-dasharray="" stroke-dashoffset="0" font-family="Marker" font-weight="normal" text-anchor="start" style="mix-blend-mode: normal"><tspan x="0" dy="0">Who is he we</tspan><tspan x="0" dy="46.15px">  still don't </tspan><tspan x="0" dy="46.15px">    know</tspan></text><path d="M-34.48816,428.42349v-194.15948h570.86207v194.15948z" fill="#205219" stroke-width="0"/><path d="M535.54416,261.23058c0,47.42924 -285.11422,86.70798 -371.72413,86.70798c-86.60991,0 -168.47804,-111.68386 -215.73276,-115.74893c-49.78448,-4.28268 113.35776,-58.49677 199.96768,-58.49677c86.60992,0 387.48922,40.10848 387.48922,87.53772z" fill="#205219" stroke-width="0"/><path d="M192.11925,345.46189v-99.67846c0,0 -2.05446,-35.24325 42.87245,-34.83387c47.0854,0.42904 41.80064,34.83387 41.80064,34.83387v99.67846z" fill="#636363" stroke-width="0"/><path d="M-3.78772,359.11364v-21.57328h535.18319v21.57328z" fill="#000000" stroke-width="0"/><path d="M-116.37393,318.15194v-1.65948h0.82974v1.65948z" fill="#18dd1d" stroke-width="0"/><path d="M-1.87837,360.45502v-23.02994h96.94369v23.02994z" fill="#de1818" stroke-width="0"/><text transform="translate(7.70397,354.30838) scale(0.41524,0.45432)" font-size="40" xml:space="preserve" fill="#ffffff" fill-rule="nonzero" stroke="none" stroke-width="1" stroke-linecap="butt" stroke-linejoin="miter" stroke-miterlimit="10" stroke-dasharray="" stroke-dashoffset="0" font-family="Sans Serif" font-weight="normal" text-anchor="start" style="mix-blend-mode: normal"><tspan x="0" dy="0">I hate you</tspan></text><text transform="translate(196.07597,246.40714) scale(0.3828,0.3828)" font-size="40" xml:space="preserve" fill="#000000" fill-rule="nonzero" stroke="none" stroke-width="1" stroke-linecap="butt" stroke-linejoin="miter" stroke-miterlimit="10" stroke-dasharray="" stroke-dashoffset="0" font-family="Marker" font-weight="normal" text-anchor="start" style="mix-blend-mode: normal"><tspan x="0" dy="0">Rip Glarey</tspan></text><text transform="translate(194.44518,274.9608) scale(0.31255,0.31255)" font-size="40" xml:space="preserve" fill="#000000" fill-rule="nonzero" stroke="none" stroke-width="1" stroke-linecap="butt" stroke-linejoin="miter" stroke-miterlimit="10" stroke-dasharray="" stroke-dashoffset="0" font-family="Marker" font-weight="normal" text-anchor="start" style="mix-blend-mode: normal"><tspan x="0" dy="0">"I thought </tspan><tspan x="0" dy="46.150000000000006px">he was cool."</tspan></text><text transform="translate(199.6637,304.98542) scale(0.25654,0.25654)" font-size="40" xml:space="preserve" fill="#000000" fill-rule="nonzero" stroke="none" stroke-width="1" stroke-linecap="butt" stroke-linejoin="miter" stroke-miterlimit="10" stroke-dasharray="" stroke-dashoffset="0" font-family="Marker" font-weight="normal" text-anchor="start" style="mix-blend-mode: normal"><tspan x="0" dy="0">-big chicken</tspan></text></g></g></svg>